<?xml version="1.0" encoding="UTF-8"?>
<!DOCTYPE svg PUBLIC "-//W3C//DTD SVG 1.1//EN" "http://www.w3.org/Graphics/SVG/1.1/DTD/svg11.dtd">
<svg xmlns="http://www.w3.org/2000/svg" version="1.1" width="417px" height="235px" style="shape-rendering:geometricPrecision; text-rendering:geometricPrecision; image-rendering:optimizeQuality; fill-rule:evenodd; clip-rule:evenodd" xmlns:xlink="http://www.w3.org/1999/xlink">
<g><path style="opacity:1" fill="#e9eae7" d="M -0.5,-0.5 C 138.5,-0.5 277.5,-0.5 416.5,-0.5C 416.5,77.8333 416.5,156.167 416.5,234.5C 277.5,234.5 138.5,234.5 -0.5,234.5C -0.5,156.167 -0.5,77.8333 -0.5,-0.5 Z"/></g>
<g><path style="opacity:1" fill="#829095" d="M 197.5,51.5 C 197.679,57.4042 197.012,63.0709 195.5,68.5C 195.596,62.6268 196.263,56.9601 197.5,51.5 Z"/></g>
<g><path style="opacity:1" fill="#213d48" d="M 142.5,46.5 C 148.167,46.5 153.833,46.5 159.5,46.5C 159.665,49.5184 159.498,52.5184 159,55.5C 155.589,56.2931 152.089,56.7931 148.5,57C 138.622,67.8619 129.956,79.5285 122.5,92C 122.858,94.0324 123.692,95.8657 125,97.5C 132.691,107.024 140.191,116.69 147.5,126.5C 151.157,128.041 154.99,129.041 159,129.5C 159.498,132.482 159.665,135.482 159.5,138.5C 154.156,138.666 148.823,138.499 143.5,138C 142.167,137.333 140.833,136.667 139.5,136C 128.918,122.426 118.752,108.593 109,94.5C 108.333,92.5 108.333,90.5 109,88.5C 117.615,76.2171 126.615,64.2171 136,52.5C 138.063,50.2659 140.229,48.2659 142.5,46.5 Z"/></g>
<g><path style="opacity:1" fill="#1f3c47" d="M 229.5,123.5 C 229.277,119.838 228.277,116.505 226.5,113.5C 226.586,112.504 226.252,111.671 225.5,111C 213.833,110.333 202.167,110.333 190.5,111C 189.127,116.798 187.794,122.631 186.5,128.5C 180.636,129.816 174.803,129.816 169,128.5C 168.333,125.5 168.333,122.5 169,119.5C 172.001,103.495 175.001,87.495 178,71.5C 183.417,70.6911 188.917,70.1911 194.5,70C 195.056,69.6174 195.389,69.1174 195.5,68.5C 197.012,63.0709 197.679,57.4042 197.5,51.5C 197.611,50.8826 197.944,50.3826 198.5,50C 204.551,49.7918 210.551,49.2918 216.5,48.5C 217.551,41.5711 218.884,34.7378 220.5,28C 226.491,27.5005 232.491,27.3338 238.5,27.5C 238.651,34.9562 237.818,42.2895 236,49.5C 230,50.1667 224,50.8333 218,51.5C 216.869,57.4705 216.536,63.4705 217,69.5C 222,70.1667 227,70.8333 232,71.5C 237.63,90.0565 243.463,108.556 249.5,127C 249.355,127.772 249.022,128.439 248.5,129C 242.833,129.667 237.167,129.667 231.5,129C 230.139,127.416 229.472,125.582 229.5,123.5 Z"/></g>
<g><path style="opacity:1" fill="#213d48" d="M 256.5,46.5 C 262.952,46.0845 269.285,46.5845 275.5,48C 285.047,59.2117 294.214,70.7117 303,82.5C 305.173,85.3456 306.673,88.5122 307.5,92C 306.673,95.4878 305.173,98.6544 303,101.5C 294.95,111.215 287.284,121.215 280,131.5C 274.016,138.265 266.516,140.432 257.5,138C 256.39,135.263 256.223,132.429 257,129.5C 260.076,128.712 263.242,128.212 266.5,128C 276.492,116.852 285.492,105.018 293.5,92.5C 292.863,89.8929 291.696,87.5596 290,85.5C 282.5,76 275,66.5 267.5,57C 263.911,56.7931 260.411,56.2931 257,55.5C 256.502,52.5184 256.335,49.5184 256.5,46.5 Z"/></g>
<g><path style="opacity:1" fill="#e2e4e1" d="M 198.5,70.5 C 203.762,70.1953 208.928,70.5286 214,71.5C 216.761,78.2788 218.594,85.2788 219.5,92.5C 210.833,92.5 202.167,92.5 193.5,92.5C 193.433,84.6751 195.1,77.3418 198.5,70.5 Z"/></g>
<g><path style="opacity:1" fill="#899a9f" d="M 226.5,113.5 C 228.277,116.505 229.277,119.838 229.5,123.5C 227.723,120.495 226.723,117.162 226.5,113.5 Z"/></g>
<g><path style="opacity:1" fill="#213e49" d="M 65.5,173.5 C 72.5079,173.334 79.5079,173.5 86.5,174C 96.1158,176.4 98.9491,182.233 95,191.5C 94.0975,192.701 92.9308,193.535 91.5,194C 98.9397,198.623 100.44,204.789 96,212.5C 94.5806,213.46 93.0806,214.293 91.5,215C 82.9164,216.41 74.2498,216.91 65.5,216.5C 65.5,202.167 65.5,187.833 65.5,173.5 Z"/></g>
<g><path style="opacity:1" fill="#203f49" d="M 230.5,215.5 C 221.874,216.411 213.208,216.745 204.5,216.5C 204.5,202.167 204.5,187.833 204.5,173.5C 211.508,173.334 218.508,173.5 225.5,174C 234.426,175.732 237.76,180.898 235.5,189.5C 234.307,191.527 232.64,193.027 230.5,194C 237.94,198.623 239.44,204.789 235,212.5C 233.348,213.399 231.848,214.399 230.5,215.5 Z"/></g>
<g><path style="opacity:1" fill="#1c3c46" d="M 345.5,173.5 C 347.833,173.5 350.167,173.5 352.5,173.5C 352.5,187.833 352.5,202.167 352.5,216.5C 350.167,216.5 347.833,216.5 345.5,216.5C 345.5,202.167 345.5,187.833 345.5,173.5 Z"/></g>
<g><path style="opacity:1" fill="#1e3c47" d="M 170.5,209.5 C 171.622,210.156 172.955,210.489 174.5,210.5C 176.883,210.639 178.883,209.972 180.5,208.5C 182.822,207.198 184.155,205.198 184.5,202.5C 185.494,193.348 185.827,184.015 185.5,174.5C 187.5,174.5 189.5,174.5 191.5,174.5C 191.5,185.167 191.5,195.833 191.5,206.5C 189.794,211.868 186.127,215.202 180.5,216.5C 175.463,216.587 170.463,216.254 165.5,215.5C 161.885,213.979 159.385,211.313 158,207.5C 157.5,196.172 157.333,184.838 157.5,173.5C 159.833,173.5 162.167,173.5 164.5,173.5C 164.334,183.839 164.5,194.172 165,204.5C 166.076,207.079 167.909,208.746 170.5,209.5 Z"/></g>
<g><path style="opacity:1" fill="#213e49" d="M 316.5,201.5 C 314.052,200.527 311.385,200.194 308.5,200.5C 308.5,205.833 308.5,211.167 308.5,216.5C 306.167,216.5 303.833,216.5 301.5,216.5C 301.5,202.167 301.5,187.833 301.5,173.5C 308.508,173.334 315.508,173.5 322.5,174C 333.278,177.153 336.445,183.986 332,194.5C 329.957,196.712 327.791,198.712 325.5,200.5C 328.726,205.619 331.393,210.952 333.5,216.5C 330.753,216.813 328.086,216.48 325.5,215.5C 322.974,210.429 319.974,205.762 316.5,201.5 Z"/></g>
<g><path style="opacity:1" fill="#24404a" d="M 31.5,173.5 C 34.5719,173.183 37.5719,173.516 40.5,174.5C 46.8477,188.223 52.1811,202.223 56.5,216.5C 53.7531,216.813 51.0865,216.48 48.5,215.5C 47.5,212.833 46.5,210.167 45.5,207.5C 39.2015,206.504 32.8682,206.17 26.5,206.5C 25.801,209.573 24.801,212.573 23.5,215.5C 20.9135,216.48 18.2469,216.813 15.5,216.5C 20.0266,201.926 25.3599,187.593 31.5,173.5 Z"/></g>
<g><path style="opacity:1" fill="#213e49" d="M 129.5,174.5 C 142.385,177.246 148.218,185.246 147,198.5C 145.985,205.994 142.151,211.327 135.5,214.5C 126.874,215.411 118.208,215.745 109.5,215.5C 109.5,201.833 109.5,188.167 109.5,174.5C 116.167,174.5 122.833,174.5 129.5,174.5 Z"/></g>
<g><path style="opacity:1" fill="#4d5f69" d="M 129.5,174.5 C 122.833,174.5 116.167,174.5 109.5,174.5C 109.5,188.167 109.5,201.833 109.5,215.5C 118.208,215.745 126.874,215.411 135.5,214.5C 135.082,215.222 134.416,215.722 133.5,216C 125.173,216.5 116.84,216.666 108.5,216.5C 108.5,202.167 108.5,187.833 108.5,173.5C 115.687,173.175 122.687,173.509 129.5,174.5 Z"/></g>
<g><path style="opacity:1" fill="#e7e8e6" d="M 322.5,181.5 C 323.458,181.953 324.292,182.619 325,183.5C 326.683,188.457 325.183,191.79 320.5,193.5C 316.833,193.5 313.167,193.5 309.5,193.5C 309.5,189.5 309.5,185.5 309.5,181.5C 313.833,181.5 318.167,181.5 322.5,181.5 Z"/></g>
<g><path style="opacity:1" fill="#e0e1e1" d="M 73.5,180.5 C 77.8461,180.334 82.1794,180.501 86.5,181C 89.1667,184 89.1667,187 86.5,190C 82.2695,191.29 77.9362,191.79 73.5,191.5C 73.5,187.833 73.5,184.167 73.5,180.5 Z"/></g>
<g><path style="opacity:1" fill="#223f49" d="M 279.5,214.5 C 272.618,216.767 265.618,217.1 258.5,215.5C 245.911,207.9 242.411,197.234 248,183.5C 258.033,171.074 269.866,169.24 283.5,178C 292.633,187.195 293.8,197.361 287,208.5C 284.914,211.094 282.414,213.094 279.5,214.5 Z"/></g>
<g><path style="opacity:1" fill="#e4e6e4" d="M 261.5,180.5 C 270.414,178.335 277.247,181.002 282,188.5C 285.23,198.474 282.063,205.64 272.5,210C 263.423,211.583 257.256,208.083 254,199.5C 252.312,191.38 254.812,185.046 261.5,180.5 Z"/></g>
<g><path style="opacity:1" fill="#e7e9e6" d="M 129.5,181.5 C 135.986,183.507 139.319,188.007 139.5,195C 139.355,200.463 137.021,204.63 132.5,207.5C 127.547,208.329 122.547,208.663 117.5,208.5C 117.5,199.5 117.5,190.5 117.5,181.5C 121.5,181.5 125.5,181.5 129.5,181.5 Z"/></g>
<g><path style="opacity:1" fill="#495d69" d="M 191.5,206.5 C 191.5,195.833 191.5,185.167 191.5,174.5C 189.5,174.5 187.5,174.5 185.5,174.5C 185.827,184.015 185.494,193.348 184.5,202.5C 184.5,192.833 184.5,183.167 184.5,173.5C 187.167,173.5 189.833,173.5 192.5,173.5C 192.828,184.679 192.495,195.679 191.5,206.5 Z"/></g>
<g><path style="opacity:1" fill="#23414b" d="M 362.5,174.5 C 365.304,173.362 368.304,173.195 371.5,174C 374.874,179.916 378.374,185.75 382,191.5C 385.698,185.966 389.198,180.299 392.5,174.5C 395.5,173.167 398.5,173.167 401.5,174.5C 396.918,182.666 392.085,190.666 387,198.5C 386.501,204.491 386.334,210.491 386.5,216.5C 383.833,216.5 381.167,216.5 378.5,216.5C 378.666,211.156 378.499,205.823 378,200.5C 373.4,191.422 368.233,182.755 362.5,174.5 Z"/></g>
<g><path style="opacity:1" fill="#e1e1e0" d="M 212.5,180.5 C 216.846,180.334 221.179,180.501 225.5,181C 229.889,185.333 229.222,188.666 223.5,191C 219.848,191.499 216.182,191.665 212.5,191.5C 212.5,187.833 212.5,184.167 212.5,180.5 Z"/></g>
<g><path style="opacity:1" fill="#a1abaf" d="M 322.5,181.5 C 318.167,181.5 313.833,181.5 309.5,181.5C 309.5,185.5 309.5,189.5 309.5,193.5C 313.167,193.5 316.833,193.5 320.5,193.5C 316.702,194.483 312.702,194.817 308.5,194.5C 308.5,189.833 308.5,185.167 308.5,180.5C 313.363,180.181 318.03,180.514 322.5,181.5 Z"/></g>
<g><path style="opacity:1" fill="#b5c1c3" d="M 129.5,181.5 C 125.5,181.5 121.5,181.5 117.5,181.5C 117.5,190.5 117.5,199.5 117.5,208.5C 122.547,208.663 127.547,208.329 132.5,207.5C 132.082,208.222 131.416,208.722 130.5,209C 125.845,209.499 121.179,209.666 116.5,209.5C 116.5,199.833 116.5,190.167 116.5,180.5C 121.032,180.182 125.366,180.515 129.5,181.5 Z"/></g>
<g><path style="opacity:1" fill="#e4e4e5" d="M 41.5,198.5 C 37.8333,199.833 34.1667,199.833 30.5,198.5C 31.8308,193.343 33.6641,188.343 36,183.5C 38.3359,188.343 40.1692,193.343 41.5,198.5 Z"/></g>
<g><path style="opacity:1" fill="#e2e4e2" d="M 212.5,197.5 C 216.846,197.334 221.179,197.501 225.5,198C 230.414,201.171 230.747,204.837 226.5,209C 221.845,209.499 217.179,209.666 212.5,209.5C 212.5,205.5 212.5,201.5 212.5,197.5 Z"/></g>
<g><path style="opacity:1" fill="#7f949f" d="M 30.5,198.5 C 34.1667,199.833 37.8333,199.833 41.5,198.5C 42.0431,198.56 42.3764,198.893 42.5,199.5C 38.1667,200.833 33.8333,200.833 29.5,199.5C 29.6236,198.893 29.9569,198.56 30.5,198.5 Z"/></g>
<g><path style="opacity:1" fill="#e2e4e2" d="M 73.5,197.5 C 77.8461,197.334 82.1794,197.501 86.5,198C 91.4141,201.171 91.7475,204.837 87.5,209C 82.8452,209.499 78.1785,209.666 73.5,209.5C 73.5,205.5 73.5,201.5 73.5,197.5 Z"/></g>
<g><path style="opacity:1" fill="#919b9f" d="M 316.5,201.5 C 314.167,201.5 311.833,201.5 309.5,201.5C 309.821,206.695 309.487,211.695 308.5,216.5C 308.5,211.167 308.5,205.833 308.5,200.5C 311.385,200.194 314.052,200.527 316.5,201.5 Z"/></g>
<g><path style="opacity:1" fill="#92a1a9" d="M 180.5,208.5 C 178.883,209.972 176.883,210.639 174.5,210.5C 172.955,210.489 171.622,210.156 170.5,209.5C 173.881,209.54 177.214,209.207 180.5,208.5 Z"/></g>
<g><path style="opacity:1" fill="#7c8e91" d="M 165.5,215.5 C 170.463,216.254 175.463,216.587 180.5,216.5C 176.354,217.647 172.02,217.814 167.5,217C 166.584,216.722 165.918,216.222 165.5,215.5 Z"/></g>
<g><path style="opacity:1" fill="#aeb3b7" d="M 230.5,215.5 C 230.082,216.222 229.416,216.722 228.5,217C 220.323,217.823 212.323,217.656 204.5,216.5C 213.208,216.745 221.874,216.411 230.5,215.5 Z"/></g>
<g><path style="opacity:1" fill="#7e8c91" d="M 279.5,214.5 C 278.653,215.966 277.32,216.8 275.5,217C 273.167,217.167 270.833,217.333 268.5,217.5C 264.859,217.685 261.526,217.019 258.5,215.5C 265.618,217.1 272.618,216.767 279.5,214.5 Z"/></g>
</svg>
